<?xml version="1.0" encoding="utf-8"?>

<!DOCTYPE svg PUBLIC "-//W3C//DTD SVG 1.1//EN" "http://www.w3.org/Graphics/SVG/1.1/DTD/svg11.dtd">
<svg version="1.1" id="Layer_1" xmlns="http://www.w3.org/2000/svg" xmlns:xlink="http://www.w3.org/1999/xlink" x="0px" y="0px"
	 viewBox="0 0 2633.82 1374.19" enable-background="new 0 0 2633.82 1374.19" xml:space="preserve" fill="#eb6637" >
<g id="a_3_">
	<path d="M1954.619,1329.385c-83.274,0-164.507-15.806-241.44-46.982c-79.748-32.314-151.235-79.716-212.476-140.888l-0.076-0.075
		L1316.91,957.723l-183.794,183.793c-61.24,61.172-132.726,108.574-212.474,140.888c-76.935,31.175-158.167,46.982-241.441,46.982
		c-83.274,0-164.506-15.806-241.44-46.982c-79.748-32.314-151.235-79.716-212.475-140.888
		c-61.287-61.219-108.792-132.712-141.197-212.493C52.83,852.062,36.957,770.785,36.91,687.453
		c-0.047-83.333,15.737-164.627,46.91-241.624c32.315-79.817,79.741-151.363,140.96-212.649
		c61.218-61.287,132.711-108.792,212.492-141.197c76.962-31.259,158.238-47.132,241.571-47.179c0.122,0,0.245,0,0.367,0
		c83.204,0,164.372,15.782,241.257,46.909c79.817,32.316,151.362,79.741,212.649,140.96l0.075,0.075l183.718,183.718
		l183.794-183.794c61.287-61.219,132.833-108.644,212.649-140.96c76.88-31.125,158.058-46.909,241.257-46.909
		c0.127,0,0.239,0,0.366,0c83.332,0.047,164.609,15.92,241.571,47.179c79.781,32.405,151.273,79.91,212.492,141.197
		c61.219,61.286,108.645,132.831,140.96,212.649c31.174,76.997,46.957,158.291,46.91,241.624
		c-0.047,83.332-15.919,164.609-47.179,241.571c-32.404,79.781-79.909,151.274-141.196,212.493
		c-61.24,61.172-132.727,108.574-212.475,140.888C2119.125,1313.579,2037.893,1329.385,1954.619,1329.385z M679.205,427.529
		c-0.051,0-0.098,0-0.149,0c-69.333,0.039-134.5,27.074-183.499,76.128c-48.999,49.053-75.962,114.25-75.923,183.583
		c0.039,69.332,27.074,134.501,76.127,183.5c101.147,101.035,265.728,101.034,366.879-0.001l183.642-183.643L862.565,503.376
		C813.556,454.459,748.448,427.529,679.205,427.529z M1771.18,870.738c101.148,101.035,265.729,101.036,366.879,0
		c49.052-48.998,76.088-114.167,76.127-183.499c0.039-69.333-26.925-134.53-75.924-183.583
		c-48.998-49.053-114.166-76.089-183.498-76.128c-0.047,0-0.102,0-0.149,0c-69.281,0-134.415,26.957-183.435,75.923
		l-183.643,183.643L1771.18,870.738z"/>
</g>
<g id="Fills">
</g>
<g id="Infinity_Symbol">
</g>
<g id="Infinity_Symbol_copy">
</g>
<g id="Infinity_Symbol_copy_1_">
</g>
<g id="Infinity_Symbol_copy_2_">
</g>
<g id="Infinity_Symbol_copy_3_">
</g>
<g id="Infinity_Symbol_copy_4_">
</g>
<g id="Infinity_Symbol_copy_5_">
</g>
<g id="Infinity_Symbol_copy_6_">
</g>
<g id="Infinity_Symbol_copy_7_">
</g>
<g id="Infinity_Symbol_copy_8_">
</g>
<g id="Infinity_Symbol_copy_9_">
</g>
<g id="Infinity_Symbol_copy_10_">
</g>
<g id="Infinity_Symbol_copy_11_">
</g>
<g id="Infinity_Symbol_copy_12_">
</g>
<g id="Infinity_Symbol_copy_13_">
</g>
<g id="Infinity_Symbol_copy_14_">
</g>
<g id="Infinity_Symbol_copy_15_">
</g>
<g id="Infinity_Symbol_copy_16_">
</g>
<g id="Infinity_Symbol_copy_17_">
</g>
<g id="Infinity_Symbol_copy_18_">
</g>
<g id="Infinity_Symbol_copy_19_">
</g>
<g id="Infinity_Symbol_copy_20_">
</g>
<g id="Infinity_Symbol_copy_21_">
</g>
<g id="Infinity_Symbol_copy_22_">
</g>
<g id="Infinity_Symbol_copy_23_">
</g>
<g id="Infinity_Symbol_copy_24_">
</g>
<g id="Infinity_Symbol_copy_25_">
</g>
<g id="Infinity_Symbol_copy_26_">
</g>
<g id="Infinity_Symbol_copy_27_">
</g>
<g id="Infinity_Symbol_copy_28_">
</g>
<g id="Infinity_Symbol_copy_29_">
</g>
<g id="Infinity_Symbol_copy_30_">
</g>
<g id="Infinity_Symbol_copy_31_">
</g>
<g id="Infinity_Symbol_copy_32_">
</g>
<g id="Infinity_Symbol_copy_33_">
</g>
<g id="Infinity_Symbol_copy_34_">
</g>
<g id="Infinity_Symbol_copy_35_">
</g>
<g id="Infinity_Symbol_copy_36_">
</g>
<g id="Infinity_Symbol_copy_37_">
</g>
<g id="Infinity_Symbol_copy_38_">
</g>
<g id="Infinity_Symbol_copy_39_">
</g>
<g id="Infinity_Symbol_copy_40_">
</g>
<g id="Infinity_Symbol_copy_41_">
</g>
<g id="Infinity_Symbol_copy_42_">
</g>
<g id="Infinity_Symbol_copy_43_">
</g>
<g id="Infinity_Symbol_copy_44_">
</g>
<g id="Infinity_Symbol_copy_45_">
</g>
<g id="Infinity_Symbol_copy_46_">
</g>
<g id="Infinity_Symbol_copy_47_">
</g>
<g id="Infinity_Symbol_copy_2">
</g>
<g id="Infinity_Symbol_copy_2_1_">
</g>
<g id="Infinity_Symbol_copy_2_2_">
</g>
<g id="Infinity_Symbol_copy_2_3_">
</g>
<g id="Infinity_Symbol_copy_2_4_">
</g>
<g id="Infinity_Symbol_copy_2_5_">
</g>
<g id="Infinity_Symbol_copy_2_6_">
</g>
<g id="Infinity_Symbol_copy_2_7_">
</g>
<g id="Infinity_Symbol_copy_2_8_">
</g>
<g id="Infinity_Symbol_copy_2_9_">
</g>
<g id="Infinity_Symbol_copy_2_10_">
</g>
<g id="Infinity_Symbol_copy_2_11_">
</g>
<g id="Infinity_Symbol_copy_2_12_">
</g>
<g id="Infinity_Symbol_copy_2_13_">
</g>
<g id="Infinity_Symbol_copy_2_14_">
</g>
<g id="Infinity_Symbol_copy_2_15_">
</g>
<g id="Infinity_Symbol_copy_2_16_">
</g>
<g id="Infinity_Symbol_copy_2_17_">
</g>
<g id="Infinity_Symbol_copy_2_18_">
</g>
<g id="Infinity_Symbol_copy_2_19_">
</g>
<g id="Infinity_Symbol_copy_2_20_">
</g>
<g id="Infinity_Symbol_copy_2_21_">
</g>
<g id="Infinity_Symbol_copy_2_22_">
</g>
<g id="Infinity_Symbol_copy_2_23_">
</g>
<g id="Infinity_Symbol_copy_2_24_">
</g>
<g id="Infinity_Symbol_copy_2_25_">
</g>
<g id="Infinity_Symbol_copy_2_26_">
</g>
<g id="Infinity_Symbol_copy_2_27_">
</g>
<g id="Infinity_Symbol_copy_2_28_">
</g>
<g id="Infinity_Symbol_copy_2_29_">
</g>
<g id="Infinity_Symbol_copy_2_30_">
</g>
<g id="Infinity_Symbol_copy_2_31_">
</g>
<g id="Infinity_Symbol_copy_2_32_">
</g>
<g id="Infinity_Symbol_copy_2_33_">
</g>
<g id="Infinity_Symbol_copy_2_34_">
</g>
<g id="Infinity_Symbol_copy_2_35_">
</g>
<g id="Infinity_Symbol_copy_2_36_">
</g>
<g id="Infinity_Symbol_copy_2_37_">
</g>
<g id="Infinity_Symbol_copy_2_38_">
</g>
<g id="Infinity_Symbol_copy_2_39_">
</g>
<g id="Infinity_Symbol_copy_2_40_">
</g>
<g id="Infinity_Symbol_copy_2_41_">
</g>
<g id="Infinity_Symbol_copy_2_42_">
</g>
<g id="Infinity_Symbol_copy_2_43_">
</g>
<g id="Infinity_Symbol_copy_2_44_">
</g>
<g id="Infinity_Symbol_copy_2_45_">
</g>
<g id="Infinity_Symbol_copy_2_46_">
</g>
<g id="Infinity_Symbol_copy_2_47_">
</g>
<g id="Infinity_Symbol_copy_2_48_">
</g>
<g id="Infinity_Symbol_copy_2_49_">
</g>
<g id="Infinity_Symbol_copy_2_50_">
</g>
<g id="Infinity_Symbol_copy_2_51_">
</g>
<g id="Infinity_Symbol_copy_2_52_">
</g>
<g id="Infinity_Symbol_copy_2_53_">
</g>
<g id="Infinity_Symbol_copy_2_54_">
</g>
</svg>
